# xmcd CD database file
#
# Track frame offsets:
#	150
#	17420
#	37699
#	62258
#	85087
#	107889
#	128954
#	148363
#	165238
#	189178
#	214162
#
# Disc length: 3137 seconds
#
# Revision: 0
# Processed by: cddbd v1.5.1PL0 Copyright (c) Steve Scherf et al.
# Submitted via: CDex 1.51
#
DISCID=850c3f0b
DTITLE=Roberto Rosemberg - Circular
DYEAR=1900
DGENRE=Jazz
TTITLE0=Conversa Fiada
TTITLE1=El Tumbao
TTITLE2=Resgate
TTITLE3=Uma Rosa para Cartola
TTITLE4=Mr. Davis
TTITLE5=Deusa da Chuva
TTITLE6=Lili
TTITLE7=Lucy
TTITLE8=Azul
TTITLE9=Fulô Bunita
TTITLE10=Circular
EXTD=
EXTT0=
EXTT1=
EXTT2=
EXTT3=
EXTT4=
EXTT5=
EXTT6=
EXTT7=
EXTT8=
EXTT9=
EXTT10=
PLAYORDER=
